<?xml version="1.0" standalone="no"?>
<!DOCTYPE svg PUBLIC "-//W3C//DTD SVG 20010904//EN"
 "http://www.w3.org/TR/2001/REC-SVG-20010904/DTD/svg10.dtd">
<svg version="1.0" xmlns="http://www.w3.org/2000/svg"
 width="512.000000pt" height="512.000000pt" viewBox="0 0 512.000000 512.000000"
 preserveAspectRatio="xMidYMid meet">

<g transform="translate(0.000000,512.000000) scale(0.100000,-0.100000)"
fill="#000000" stroke="none">
<path d="M1625 4935 l-25 -24 0 -671 0 -671 25 -24 c20 -21 34 -25 80 -25 l55
0 0 -80 0 -80 -494 0 c-456 0 -495 -1 -514 -17 -12 -10 -110 -209 -219 -443
l-198 -425 0 -105 c0 -96 2 -110 29 -163 57 -111 172 -191 294 -203 l62 -7 0
-478 0 -479 80 0 80 0 0 501 0 500 60 57 60 58 46 -47 c26 -27 74 -60 108 -76
54 -24 73 -28 161 -28 91 0 106 3 165 31 36 17 82 48 103 68 l37 37 53 -46
c79 -69 140 -89 267 -90 94 0 111 3 165 28 33 15 78 46 101 68 l40 40 20 -22
c92 -102 276 -146 422 -101 60 19 131 62 166 101 l20 22 40 -40 c23 -22 68
-53 101 -68 54 -25 71 -28 165 -28 127 1 188 21 267 90 l53 46 37 -37 c21 -20
67 -51 103 -68 59 -28 74 -31 165 -31 88 0 107 4 161 28 34 16 82 49 108 76
l46 47 60 -58 60 -57 0 -500 0 -501 80 0 80 0 0 479 0 478 62 7 c122 12 242
95 295 205 25 50 28 67 28 161 l0 105 -198 425 c-109 234 -207 433 -219 443
-19 16 -58 17 -514 17 l-494 0 0 80 0 80 55 0 c46 0 60 4 80 25 l25 24 0 671
0 671 -25 24 -24 25 -911 0 -911 0 -24 -25z m1735 -695 l0 -560 -800 0 -800 0
0 560 0 560 800 0 800 0 0 -560z m-1280 -800 l0 -80 -80 0 -80 0 0 80 0 80 80
0 80 0 0 -80z m800 0 l0 -80 -320 0 -320 0 0 80 0 80 320 0 320 0 0 -80z m320
0 l0 -80 -80 0 -80 0 0 80 0 80 80 0 80 0 0 -80z m-2012 -252 c-3 -7 -73 -218
-157 -469 -132 -396 -156 -460 -184 -489 -41 -42 -101 -69 -153 -70 -58 0
-139 43 -172 93 -23 35 -27 51 -27 116 l1 76 153 325 c85 179 164 349 177 378
l24 52 171 0 c133 0 170 -3 167 -12z m517 -10 c-3 -13 -43 -213 -90 -446 -46
-232 -92 -438 -101 -457 -49 -105 -189 -145 -303 -89 -69 35 -103 86 -109 164
-4 53 7 91 128 454 l132 396 174 0 174 0 -5 -22z m515 -15 c-1 -21 -13 -220
-29 -443 -25 -363 -30 -409 -49 -447 -64 -125 -260 -154 -366 -55 -36 34 -65
97 -66 142 0 20 36 215 80 435 44 220 80 401 80 402 0 2 79 3 175 3 l175 0 0
-37z m520 15 c0 -13 12 -204 26 -426 30 -446 30 -452 -29 -519 -44 -50 -98
-73 -177 -73 -79 0 -133 23 -177 73 -59 67 -59 73 -29 519 14 222 26 413 26
426 l0 22 180 0 180 0 0 -22z m510 19 c0 -1 36 -182 80 -402 44 -220 80 -415
80 -435 -1 -45 -30 -108 -66 -142 -106 -99 -302 -70 -366 55 -19 38 -24 84
-49 447 -16 223 -28 422 -29 443 l0 37 175 0 c96 0 175 -1 175 -3z m640 -393
c121 -363 132 -401 128 -454 -6 -78 -40 -129 -109 -164 -114 -56 -254 -16
-303 89 -9 19 -55 225 -101 457 -47 233 -87 433 -90 446 l-5 22 174 0 174 0
132 -396z m558 16 l176 -375 1 -76 c0 -65 -4 -81 -27 -116 -33 -50 -113 -93
-173 -93 -52 0 -134 40 -164 81 -13 18 -89 229 -177 493 -85 253 -154 462
-154 464 0 1 77 1 171 0 l170 -3 177 -375z"/>
<path d="M2345 4695 c-23 -22 -25 -32 -25 -120 l0 -95 -95 0 c-88 0 -98 -2
-120 -25 -25 -24 -25 -26 -25 -215 0 -189 0 -191 25 -215 22 -23 32 -25 120
-25 l95 0 0 -95 c0 -88 2 -98 25 -120 24 -25 26 -25 215 -25 189 0 191 0 215
25 23 22 25 32 25 120 l0 95 95 0 c88 0 98 2 120 25 25 24 25 26 25 215 0 189
0 191 -25 215 -22 23 -32 25 -120 25 l-95 0 0 95 c0 88 -2 98 -25 120 -24 25
-26 25 -215 25 -189 0 -191 0 -215 -25z m295 -230 c0 -88 2 -98 25 -120 22
-23 32 -25 120 -25 l95 0 0 -80 0 -80 -95 0 c-88 0 -98 -2 -120 -25 -23 -22
-25 -32 -25 -120 l0 -95 -80 0 -80 0 0 95 c0 88 -2 98 -25 120 -22 23 -32 25
-120 25 l-95 0 0 80 0 80 95 0 c88 0 98 2 120 25 23 22 25 32 25 120 l0 95 80
0 80 0 0 -95z"/>
<path d="M1065 1895 l-25 -24 0 -416 0 -415 80 0 80 0 0 360 0 360 320 0 320
0 0 -680 0 -680 -120 0 -120 0 0 215 c0 216 0 216 -25 240 l-24 25 -591 0
-591 0 -24 -25 c-25 -24 -25 -24 -25 -240 l0 -215 -80 0 -80 0 0 -80 0 -80
2400 0 2400 0 0 80 0 80 -80 0 -80 0 0 215 c0 216 0 216 -25 240 l-24 25 -591
0 -591 0 -24 -25 c-25 -24 -25 -24 -25 -240 l0 -215 -760 0 -760 0 0 735 0
736 -25 24 -24 25 -431 0 -431 0 -24 -25z m375 -1335 l0 -160 -480 0 -480 0 0
160 0 160 480 0 480 0 0 -160z m3200 0 l0 -160 -480 0 -480 0 0 160 0 160 480
0 480 0 0 -160z"/>
<path d="M2185 1895 l-25 -24 0 -431 0 -431 25 -24 24 -25 911 0 911 0 24 25
25 24 0 431 0 431 -25 24 -24 25 -911 0 -911 0 -24 -25z m1735 -455 l0 -320
-800 0 -800 0 0 320 0 320 800 0 800 0 0 -320z"/>
<path d="M1625 1095 c-50 -49 -15 -135 55 -135 19 0 40 9 55 25 16 15 25 36
25 55 0 19 -9 40 -25 55 -15 16 -36 25 -55 25 -19 0 -40 -9 -55 -25z"/>
</g>
</svg>
